<svg width="34" height="35" viewBox="0 0 34 35" fill="none" xmlns="http://www.w3.org/2000/svg">
<path d="M14.8438 8.46875H16.9688C17.1096 8.46875 17.2448 8.41278 17.3444 8.31315C17.444 8.21352 17.5 8.0784 17.5 7.9375V4.75C17.5 4.6091 17.444 4.47398 17.3444 4.37435C17.2448 4.27472 17.1096 4.21875 16.9688 4.21875H14.8438C14.7029 4.21875 14.5677 4.27472 14.4681 4.37435C14.3685 4.47398 14.3125 4.6091 14.3125 4.75V7.9375C14.3125 8.0784 14.3685 8.21352 14.4681 8.31315C14.5677 8.41278 14.7029 8.46875 14.8438 8.46875ZM15.375 5.28125H16.4375V7.40625H15.375V5.28125Z" fill="#616161"/>
<path d="M19.0938 8.46875H21.2188C21.3596 8.46875 21.4948 8.41278 21.5944 8.31315C21.694 8.21352 21.75 8.0784 21.75 7.9375V4.75C21.75 4.6091 21.694 4.47398 21.5944 4.37435C21.4948 4.27472 21.3596 4.21875 21.2188 4.21875H19.0938C18.9529 4.21875 18.8177 4.27472 18.7181 4.37435C18.6185 4.47398 18.5625 4.6091 18.5625 4.75V7.9375C18.5625 8.0784 18.6185 8.21352 18.7181 8.31315C18.8177 8.41278 18.9529 8.46875 19.0938 8.46875ZM19.625 5.28125H20.6875V7.40625H19.625V5.28125Z" fill="#616161"/>
<path d="M23.3438 8.46875H25.4688C25.6096 8.46875 25.7448 8.41278 25.8444 8.31315C25.944 8.21352 26 8.0784 26 7.9375V4.75C26 4.6091 25.944 4.47398 25.8444 4.37435C25.7448 4.27472 25.6096 4.21875 25.4688 4.21875H23.3438C23.2029 4.21875 23.0677 4.27472 22.9681 4.37435C22.8685 4.47398 22.8125 4.6091 22.8125 4.75V7.9375C22.8125 8.0784 22.8685 8.21352 22.9681 8.31315C23.0677 8.41278 23.2029 8.46875 23.3438 8.46875ZM23.875 5.28125H24.9375V7.40625H23.875V5.28125Z" fill="#616161"/>
<path d="M14.8438 13.7812H16.9688C17.1096 13.7812 17.2448 13.7253 17.3444 13.6257C17.444 13.526 17.5 13.3909 17.5 13.25V10.0625C17.5 9.9216 17.444 9.78648 17.3444 9.68685C17.2448 9.58722 17.1096 9.53125 16.9688 9.53125H14.8438C14.7029 9.53125 14.5677 9.58722 14.4681 9.68685C14.3685 9.78648 14.3125 9.9216 14.3125 10.0625V13.25C14.3125 13.3909 14.3685 13.526 14.4681 13.6257C14.5677 13.7253 14.7029 13.7812 14.8438 13.7812ZM15.375 10.5938H16.4375V12.7188H15.375V10.5938Z" fill="#616161"/>
<path d="M19.0938 13.7812H21.2188C21.3596 13.7812 21.4948 13.7253 21.5944 13.6257C21.694 13.526 21.75 13.3909 21.75 13.25V10.0625C21.75 9.9216 21.694 9.78648 21.5944 9.68685C21.4948 9.58722 21.3596 9.53125 21.2188 9.53125H19.0938C18.9529 9.53125 18.8177 9.58722 18.7181 9.68685C18.6185 9.78648 18.5625 9.9216 18.5625 10.0625V13.25C18.5625 13.3909 18.6185 13.526 18.7181 13.6257C18.8177 13.7253 18.9529 13.7812 19.0938 13.7812ZM19.625 10.5938H20.6875V12.7188H19.625V10.5938Z" fill="#616161"/>
<path d="M23.3438 13.7812H25.4688C25.6096 13.7812 25.7448 13.7253 25.8444 13.6257C25.944 13.526 26 13.3909 26 13.25V10.0625C26 9.9216 25.944 9.78648 25.8444 9.68685C25.7448 9.58722 25.6096 9.53125 25.4688 9.53125H23.3438C23.2029 9.53125 23.0677 9.58722 22.9681 9.68685C22.8685 9.78648 22.8125 9.9216 22.8125 10.0625V13.25C22.8125 13.3909 22.8685 13.526 22.9681 13.6257C23.0677 13.7253 23.2029 13.7812 23.3438 13.7812ZM23.875 10.5938H24.9375V12.7188H23.875V10.5938Z" fill="#616161"/>
<path d="M10.5938 8.46875H12.7188C12.8596 8.46875 12.9948 8.41278 13.0944 8.31315C13.194 8.21352 13.25 8.0784 13.25 7.9375V4.75C13.25 4.6091 13.194 4.47398 13.0944 4.37435C12.9948 4.27472 12.8596 4.21875 12.7188 4.21875H10.5938C10.4529 4.21875 10.3177 4.27472 10.2181 4.37435C10.1185 4.47398 10.0625 4.6091 10.0625 4.75V7.9375C10.0625 8.0784 10.1185 8.21352 10.2181 8.31315C10.3177 8.41278 10.4529 8.46875 10.5938 8.46875ZM11.125 5.28125H12.1875V7.40625H11.125V5.28125Z" fill="#616161"/>
<path d="M10.5938 13.7812H12.7188C12.8596 13.7812 12.9948 13.7253 13.0944 13.6257C13.194 13.526 13.25 13.3909 13.25 13.25V10.0625C13.25 9.9216 13.194 9.78648 13.0944 9.68685C12.9948 9.58722 12.8596 9.53125 12.7188 9.53125H10.5938C10.4529 9.53125 10.3177 9.58722 10.2181 9.68685C10.1185 9.78648 10.0625 9.9216 10.0625 10.0625V13.25C10.0625 13.3909 10.1185 13.526 10.2181 13.6257C10.3177 13.7253 10.4529 13.7812 10.5938 13.7812ZM11.125 10.5938H12.1875V12.7188H11.125V10.5938Z" fill="#616161"/>
<path d="M14.8438 19.0938H16.9688C17.1096 19.0938 17.2448 19.0378 17.3444 18.9382C17.444 18.8385 17.5 18.7034 17.5 18.5625V15.375C17.5 15.2341 17.444 15.099 17.3444 14.9993C17.2448 14.8997 17.1096 14.8438 16.9688 14.8438H14.8438C14.7029 14.8438 14.5677 14.8997 14.4681 14.9993C14.3685 15.099 14.3125 15.2341 14.3125 15.375V18.5625C14.3125 18.7034 14.3685 18.8385 14.4681 18.9382C14.5677 19.0378 14.7029 19.0938 14.8438 19.0938ZM15.375 15.9062H16.4375V18.0312H15.375V15.9062Z" fill="#616161"/>
<path d="M10.5938 19.0938H12.7188C12.8596 19.0938 12.9948 19.0378 13.0944 18.9382C13.194 18.8385 13.25 18.7034 13.25 18.5625V15.375C13.25 15.2341 13.194 15.099 13.0944 14.9993C12.9948 14.8997 12.8596 14.8438 12.7188 14.8438H10.5938C10.4529 14.8438 10.3177 14.8997 10.2181 14.9993C10.1185 15.099 10.0625 15.2341 10.0625 15.375V18.5625C10.0625 18.7034 10.1185 18.8385 10.2181 18.9382C10.3177 19.0378 10.4529 19.0938 10.5938 19.0938ZM11.125 15.9062H12.1875V18.0312H11.125V15.9062Z" fill="#616161"/>
<path d="M19.0938 19.0938H21.2188C21.3596 19.0938 21.4948 19.0378 21.5944 18.9382C21.694 18.8385 21.75 18.7034 21.75 18.5625V15.375C21.75 15.2341 21.694 15.099 21.5944 14.9993C21.4948 14.8997 21.3596 14.8438 21.2188 14.8438H19.0938C18.9529 14.8438 18.8177 14.8997 18.7181 14.9993C18.6185 15.099 18.5625 15.2341 18.5625 15.375V18.5625C18.5625 18.7034 18.6185 18.8385 18.7181 18.9382C18.8177 19.0378 18.9529 19.0938 19.0938 19.0938ZM19.625 15.9062H20.6875V18.0312H19.625V15.9062Z" fill="#616161"/>
<path d="M23.3438 19.0938H25.4688C25.6096 19.0938 25.7448 19.0378 25.8444 18.9382C25.944 18.8385 26 18.7034 26 18.5625V15.375C26 15.2341 25.944 15.099 25.8444 14.9993C25.7448 14.8997 25.6096 14.8438 25.4688 14.8438H23.3438C23.2029 14.8438 23.0677 14.8997 22.9681 14.9993C22.8685 15.099 22.8125 15.2341 22.8125 15.375V18.5625C22.8125 18.7034 22.8685 18.8385 22.9681 18.9382C23.0677 19.0378 23.2029 19.0938 23.3438 19.0938ZM23.875 15.9062H24.9375V18.0312H23.875V15.9062Z" fill="#616161"/>
<path d="M14.8438 24.4062H16.9688C17.1096 24.4062 17.2448 24.3503 17.3444 24.2507C17.444 24.151 17.5 24.0159 17.5 23.875V20.6875C17.5 20.5466 17.444 20.4115 17.3444 20.3118C17.2448 20.2122 17.1096 20.1562 16.9688 20.1562H14.8438C14.7029 20.1562 14.5677 20.2122 14.4681 20.3118C14.3685 20.4115 14.3125 20.5466 14.3125 20.6875V23.875C14.3125 24.0159 14.3685 24.151 14.4681 24.2507C14.5677 24.3503 14.7029 24.4062 14.8438 24.4062ZM15.375 21.2188H16.4375V23.3438H15.375V21.2188Z" fill="#616161"/>
<path d="M10.5938 24.4062H12.7188C12.8596 24.4062 12.9948 24.3503 13.0944 24.2507C13.194 24.151 13.25 24.0159 13.25 23.875V20.6875C13.25 20.5466 13.194 20.4115 13.0944 20.3118C12.9948 20.2122 12.8596 20.1562 12.7188 20.1562H10.5938C10.4529 20.1562 10.3177 20.2122 10.2181 20.3118C10.1185 20.4115 10.0625 20.5466 10.0625 20.6875V23.875C10.0625 24.0159 10.1185 24.151 10.2181 24.2507C10.3177 24.3503 10.4529 24.4062 10.5938 24.4062ZM11.125 21.2188H12.1875V23.3438H11.125V21.2188Z" fill="#616161"/>
<path d="M19.0938 24.4062H21.2188C21.3596 24.4062 21.4948 24.3503 21.5944 24.2507C21.694 24.151 21.75 24.0159 21.75 23.875V20.6875C21.75 20.5466 21.694 20.4115 21.5944 20.3118C21.4948 20.2122 21.3596 20.1562 21.2188 20.1562H19.0938C18.9529 20.1562 18.8177 20.2122 18.7181 20.3118C18.6185 20.4115 18.5625 20.5466 18.5625 20.6875V23.875C18.5625 24.0159 18.6185 24.151 18.7181 24.2507C18.8177 24.3503 18.9529 24.4062 19.0938 24.4062ZM19.625 21.2188H20.6875V23.3438H19.625V21.2188Z" fill="#616161"/>
<path d="M23.3438 24.4062H25.4688C25.6096 24.4062 25.7448 24.3503 25.8444 24.2507C25.944 24.151 26 24.0159 26 23.875V20.6875C26 20.5466 25.944 20.4115 25.8444 20.3118C25.7448 20.2122 25.6096 20.1562 25.4688 20.1562H23.3438C23.2029 20.1562 23.0677 20.2122 22.9681 20.3118C22.8685 20.4115 22.8125 20.5466 22.8125 20.6875V23.875C22.8125 24.0159 22.8685 24.151 22.9681 24.2507C23.0677 24.3503 23.2029 24.4062 23.3438 24.4062ZM23.875 21.2188H24.9375V23.3438H23.875V21.2188Z" fill="#616161"/>
<path d="M32.9062 21.2188H28.125V2.625C28.125 2.4841 28.069 2.34898 27.9694 2.24935C27.8698 2.14972 27.7346 2.09375 27.5937 2.09375H8.46875C8.32785 2.09375 8.19272 2.14972 8.09309 2.24935C7.99347 2.34898 7.9375 2.4841 7.9375 2.625V21.6884C7.4908 21.401 6.97492 21.2394 6.44413 21.2205C5.91334 21.2016 5.38727 21.3261 4.92127 21.5809C4.45526 21.8358 4.06656 22.2115 3.79607 22.6686C3.52557 23.1257 3.38327 23.6472 3.38415 24.1783C3.38471 24.4734 3.43039 24.7667 3.51962 25.048C2.86437 25.2829 2.31313 25.7416 1.96319 26.3433C1.61324 26.945 1.48709 27.651 1.60698 28.3367C1.72687 29.0224 2.0851 29.6437 2.61846 30.0909C3.15182 30.5382 3.82602 30.7827 4.52209 30.7812C4.97049 30.7785 5.41217 30.672 5.8125 30.4699V32.375C5.8125 32.5159 5.86847 32.651 5.96809 32.7507C6.06772 32.8503 6.20285 32.9062 6.34375 32.9062C6.48464 32.9062 6.61977 32.8503 6.7194 32.7507C6.81902 32.651 6.875 32.5159 6.875 32.375V30.4699C7.20732 30.634 7.56797 30.733 7.9375 30.7616V32.375C7.9375 32.5159 7.99347 32.651 8.09309 32.7507C8.19272 32.8503 8.32785 32.9062 8.46875 32.9062H31.8437C31.9846 32.9062 32.1198 32.8503 32.2194 32.7507C32.319 32.651 32.375 32.5159 32.375 32.375V24.4062H32.9062C33.0471 24.4062 33.1823 24.3503 33.2819 24.2507C33.3815 24.151 33.4375 24.0159 33.4375 23.875V21.75C33.4375 21.6091 33.3815 21.474 33.2819 21.3743C33.1823 21.2747 33.0471 21.2188 32.9062 21.2188ZM6.34375 27.5938C6.20285 27.5938 6.06772 27.6497 5.96809 27.7493C5.86847 27.849 5.8125 27.9841 5.8125 28.125V29.1875C5.46805 29.526 5.00503 29.7166 4.52209 29.7188C4.03646 29.7206 3.56872 29.5356 3.21584 29.2019C2.86295 28.8683 2.65197 28.4117 2.62663 27.9267C2.60129 27.4417 2.76353 26.9656 3.07972 26.597C3.39591 26.2284 3.84181 25.9956 4.325 25.9469C4.4136 25.9374 4.49839 25.9057 4.57156 25.8549C4.64474 25.804 4.70394 25.7356 4.74373 25.6559C4.78352 25.5761 4.80261 25.4877 4.79925 25.3986C4.79589 25.3096 4.77018 25.2228 4.7245 25.1463C4.54582 24.8549 4.45063 24.5201 4.44931 24.1783C4.44931 23.6752 4.64918 23.1927 5.00495 22.8369C5.36073 22.4811 5.84326 22.2812 6.3464 22.2812C6.84954 22.2812 7.33208 22.4811 7.68785 22.8369C8.04362 23.1927 8.2435 23.6752 8.2435 24.1783C8.24218 24.5201 8.14698 24.8549 7.96831 25.1463C7.92262 25.2228 7.89691 25.3096 7.89355 25.3986C7.89019 25.4877 7.90928 25.5761 7.94907 25.6559C7.98886 25.7356 8.04806 25.804 8.12124 25.8549C8.19441 25.9057 8.2792 25.9374 8.36781 25.9469C8.85124 25.9956 9.29736 26.2286 9.6136 26.5975C9.92984 26.9664 10.0919 27.4428 10.0662 27.928C10.0405 28.4133 9.82903 28.8699 9.4756 29.2034C9.12217 29.5368 8.65394 29.7213 8.16806 29.7188C7.6842 29.7173 7.22009 29.5267 6.875 29.1875V28.125C6.875 27.9841 6.81902 27.849 6.7194 27.7493C6.61977 27.6497 6.48464 27.5938 6.34375 27.5938ZM20.6875 31.8438H15.375V26.5312H20.6875V31.8438ZM27.0625 31.8438H21.75V26C21.75 25.8591 21.694 25.724 21.5944 25.6243C21.4948 25.5247 21.3596 25.4688 21.2187 25.4688H14.8437C14.7028 25.4688 14.5677 25.5247 14.4681 25.6243C14.3685 25.724 14.3125 25.8591 14.3125 26V31.8438H9V30.6596C9.59848 30.485 10.1263 30.1254 10.5078 29.6323C10.8892 29.1392 11.1048 28.538 11.1234 27.9148C11.142 27.2917 10.9629 26.6786 10.6115 26.1636C10.2602 25.6486 9.75485 25.258 9.16787 25.048C9.2571 24.7667 9.30278 24.4734 9.30334 24.1783C9.30288 23.7286 9.1991 23.2849 9 22.8816V3.15625H27.0625V31.8438ZM31.3125 31.8438H28.125V24.4062H31.3125V31.8438ZM32.375 23.3438H28.125V22.2812H32.375V23.3438Z" fill="#616161"/>
</svg>
