<svg width="35" height="35" viewBox="0 0 35 35" fill="none" xmlns="http://www.w3.org/2000/svg">
<g clip-path="url(#clip0_23_3372)">
<path d="M34.002 21.7168H13.7914L12.7545 15.4099C13.5505 15.4847 14.2292 16.0872 14.3648 16.9121C14.4764 17.5899 15.4461 17.3418 15.3475 16.75C14.9497 14.3323 18.5333 13.9055 18.9048 16.1657C19.0025 16.7597 19.999 16.6845 19.8876 16.0041C19.5222 13.7823 22.8958 13.1152 23.418 15.2879C23.4583 16.0878 24.5711 15.8784 24.3969 15.0991C23.8444 11.9924 22.1328 9.27437 19.5641 7.43109C16.9714 5.57055 13.8134 4.82343 10.6643 5.32224C10.6614 5.32264 10.6586 5.32311 10.6568 5.32337L10.6411 5.32576C10.6406 5.32583 10.6401 5.32596 10.6396 5.32603C10.6284 5.32782 10.6172 5.32928 10.606 5.33114C10.6054 5.33121 10.6048 5.33127 10.6043 5.3314C10.6009 5.33187 10.5972 5.33247 10.5941 5.33293C10.594 5.33293 10.5939 5.33293 10.5938 5.333C10.5936 5.33306 10.5934 5.33306 10.5931 5.33313C4.04341 6.4099 -0.408992 12.6145 0.667907 19.1641C0.772742 19.8016 1.83689 19.6539 1.72761 18.9898C1.56807 18.0194 2.24335 17.0783 3.21382 16.9188C4.16039 16.763 5.1308 17.4673 5.2849 18.405C5.38787 19.0309 6.37906 18.921 6.26765 18.2434C5.9068 16.0487 9.19798 15.3158 9.78536 17.4767C9.97937 18.1913 10.8922 18.2629 10.7951 17.4064C10.7148 16.7015 11.156 15.9068 11.7756 15.5943L12.7822 21.7167H1.00465C0.729653 21.7167 0.506704 21.9397 0.506704 22.2147C0.506704 22.4897 0.729653 22.7126 1.00465 22.7126H12.9459L13.4611 25.8461C12.4613 25.1556 11.4138 24.5292 10.2645 24.1388C8.60575 23.5753 6.7176 23.5717 4.94802 24.1286C3.17824 24.6854 1.63287 25.7694 0.5966 27.1809C0.433871 27.4026 0.481674 27.7142 0.703294 27.877C0.925048 28.0397 1.23663 27.9919 1.39936 27.7703C2.31114 26.5283 3.67758 25.5723 5.24685 25.0786C6.81606 24.5848 8.48432 24.5859 9.94418 25.0818C11.4907 25.6072 12.8999 26.647 14.2626 27.6527C16.1834 29.0701 18.1697 30.5359 20.6277 30.6571C20.7367 30.6624 20.8451 30.665 20.9532 30.665C22.3182 30.665 23.605 30.253 24.716 29.8601C24.9752 29.7684 25.1111 29.484 25.0194 29.2247C24.9277 28.9654 24.6431 28.8294 24.3839 28.9213C23.2746 29.3136 21.9822 29.7266 20.6768 29.6624C18.5191 29.556 16.7388 28.2422 14.854 26.8513C14.7677 26.7877 14.6812 26.7239 14.5946 26.6601C14.5955 26.6285 14.5936 26.5963 14.5883 26.5639L13.9551 22.7126H34.002C34.277 22.7126 34.5 22.4897 34.5 22.2147C34.5 21.9397 34.277 21.7168 34.002 21.7168ZM13.9575 14.767C12.8324 14.1326 11.3807 14.3604 10.5067 15.3288C10.2368 13.1701 10.1167 11.1561 10.1651 9.52168C10.2371 7.09302 10.6628 6.37212 10.806 6.30838C10.8061 6.30838 10.8062 6.30838 10.8063 6.30832C10.9676 6.32412 11.6016 6.87326 12.4469 9.15074C13.0179 10.6892 13.5503 12.6433 13.9863 14.7828C13.9768 14.7773 13.967 14.7723 13.9575 14.767ZM14.9788 14.667C14.515 12.3729 13.9421 10.284 13.3249 8.65598C12.9556 7.68232 12.5849 6.91236 12.2218 6.36435C13.362 6.61904 14.5081 7.36928 15.5531 8.56615C16.7705 9.96041 17.7405 11.8296 18.3609 13.9468C17.8413 13.69 17.2418 13.6029 16.6721 13.6966C15.9828 13.81 15.3942 14.1682 14.9788 14.667ZM22.8234 13.1645C21.642 12.6257 20.2019 12.9945 19.4224 14.0432C18.4781 10.5586 16.6743 7.78736 14.5661 6.35028C16.1403 6.64201 17.6441 7.27912 18.9835 8.24023C20.7369 9.49851 22.0549 11.2012 22.8234 13.1645ZM3.50781 15.8987C2.79415 15.8987 2.01104 16.2252 1.51349 16.7317C1.67928 12.8897 3.85578 9.42475 7.15373 7.57503C6.61011 8.29434 6.1498 9.16595 5.79579 10.1687C5.58147 10.7758 6.52054 11.1074 6.73492 10.5003C7.35935 8.73174 8.33049 7.43521 9.49343 6.77074C9.31961 7.40487 9.21498 8.25178 9.17521 9.32689C9.11054 11.0736 9.23742 13.2474 9.53506 15.5819C8.40525 14.8697 6.90702 15.0637 5.99769 16.045C5.94816 14.9355 6.00367 13.8542 6.16421 12.814C6.2624 12.1777 5.27832 12.0256 5.17999 12.662C4.99708 13.8467 4.94277 15.0797 5.0162 16.3435C4.57515 16.0604 4.05456 15.8987 3.50781 15.8987Z" fill="#616161"/>
<path d="M28.9812 8.77969C30.5018 8.77969 31.7389 7.54265 31.7389 6.02205C31.7389 4.50144 30.5019 3.2644 28.9812 3.2644C27.4606 3.2644 26.2236 4.50144 26.2236 6.02205C26.2236 7.54265 27.4607 8.77969 28.9812 8.77969ZM28.9812 4.26037C29.9526 4.26037 30.743 5.05065 30.743 6.02212C30.743 6.99358 29.9527 7.78386 28.9812 7.78386C28.0098 7.78386 27.2195 6.99358 27.2195 6.02212C27.2195 5.05065 28.0098 4.26037 28.9812 4.26037Z" fill="#616161"/>
<path d="M28.9813 2.67833C29.2563 2.67833 29.4792 2.45538 29.4792 2.18038V1.00137C29.4792 0.726367 29.2563 0.503418 28.9813 0.503418C28.7063 0.503418 28.4833 0.726367 28.4833 1.00137V2.18038C28.4833 2.45538 28.7063 2.67833 28.9813 2.67833Z" fill="#616161"/>
<path d="M28.4833 9.86392V11.0429C28.4833 11.3179 28.7063 11.5409 28.9813 11.5409C29.2563 11.5409 29.4792 11.3179 29.4792 11.0429V9.86392C29.4792 9.58892 29.2563 9.36597 28.9813 9.36597C28.7063 9.36597 28.4833 9.58892 28.4833 9.86392Z" fill="#616161"/>
<path d="M31.6978 3.80346C31.8252 3.80346 31.9527 3.75486 32.0499 3.65759L32.8836 2.82389C33.0781 2.62943 33.0781 2.31413 32.8836 2.11973C32.6891 1.92526 32.3738 1.92526 32.1794 2.11973L31.3457 2.95343C31.1513 3.14789 31.1513 3.46319 31.3457 3.65759C31.4429 3.75486 31.5704 3.80346 31.6978 3.80346Z" fill="#616161"/>
<path d="M25.9126 8.38657L25.0789 9.22027C24.8845 9.41474 24.8845 9.73004 25.0789 9.92444C25.1761 10.0216 25.3036 10.0703 25.431 10.0703C25.5584 10.0703 25.6859 10.0217 25.7831 9.92444L26.6168 9.09074C26.8113 8.89627 26.8113 8.58097 26.6168 8.38657C26.4224 8.19211 26.1071 8.19211 25.9126 8.38657Z" fill="#616161"/>
<path d="M32.3251 6.02212C32.3251 6.29712 32.548 6.52007 32.823 6.52007H34.002C34.2771 6.52007 34.5 6.29712 34.5 6.02212C34.5 5.74712 34.2771 5.52417 34.002 5.52417H32.823C32.548 5.52417 32.3251 5.74712 32.3251 6.02212Z" fill="#616161"/>
<path d="M23.9605 6.52007H25.1395C25.4145 6.52007 25.6374 6.29712 25.6374 6.02212C25.6374 5.74712 25.4145 5.52417 25.1395 5.52417H23.9605C23.6855 5.52417 23.4625 5.74712 23.4625 6.02212C23.4625 6.29712 23.6855 6.52007 23.9605 6.52007Z" fill="#616161"/>
<path d="M31.3457 8.38657C31.1513 8.58104 31.1513 8.89627 31.3457 9.09074L32.1794 9.92444C32.2766 10.0217 32.4041 10.0703 32.5315 10.0703C32.6589 10.0703 32.7864 10.0217 32.8836 9.92444C33.0781 9.72997 33.0781 9.41474 32.8836 9.22027L32.0499 8.38657C31.8555 8.19211 31.5402 8.19211 31.3457 8.38657Z" fill="#616161"/>
<path d="M25.9126 3.65762C26.0098 3.75488 26.1373 3.80349 26.2647 3.80349C26.3921 3.80349 26.5196 3.75488 26.6168 3.65762C26.8113 3.46315 26.8113 3.14785 26.6168 2.95345L25.7831 2.11975C25.5886 1.92522 25.2733 1.92529 25.0789 2.11975C24.8845 2.31422 24.8845 2.62952 25.0789 2.82392L25.9126 3.65762Z" fill="#616161"/>
<path d="M2.78127 28.7632C2.14044 28.7632 2.13938 29.7591 2.78127 29.7591C3.42209 29.7591 3.42316 28.7632 2.78127 28.7632Z" fill="#616161"/>
<path d="M9.65675 31.5427C9.01593 31.5427 9.01486 32.5386 9.65675 32.5386C10.2976 32.5386 10.2986 31.5427 9.65675 31.5427Z" fill="#616161"/>
<path d="M11.3891 27.7761C10.7483 27.7761 10.7472 28.772 11.3891 28.772C12.0299 28.772 12.031 27.7761 11.3891 27.7761Z" fill="#616161"/>
<path d="M24.5859 33.501C23.9451 33.501 23.944 34.4969 24.5859 34.4969C25.2267 34.4969 25.2278 33.501 24.5859 33.501Z" fill="#616161"/>
<path d="M30.4913 30.7317C29.8505 30.7317 29.8494 31.7276 30.4913 31.7276C31.1321 31.7276 31.1332 30.7317 30.4913 30.7317Z" fill="#616161"/>
<path d="M19.8159 26.1467C19.5409 26.1467 19.318 26.3697 19.318 26.6447C19.318 26.9197 19.5409 27.1426 19.8159 27.1426H23.6479C23.9229 27.1426 24.1459 26.9197 24.1459 26.6447C24.1459 26.3697 23.9229 26.1467 23.6479 26.1467H19.8159Z" fill="#616161"/>
<path d="M31.7389 24.6085C31.7389 24.3335 31.516 24.1106 31.241 24.1106H22.6764C22.4014 24.1106 22.1785 24.3335 22.1785 24.6085C22.1785 24.8835 22.4014 25.1065 22.6764 25.1065H31.241C31.516 25.1065 31.7389 24.8836 31.7389 24.6085Z" fill="#616161"/>
<path d="M34.3117 29.2801C32.4123 27.686 30.1839 27.2305 27.4991 27.8875C27.232 27.9529 27.0684 28.2224 27.1338 28.4896C27.1992 28.7567 27.4688 28.9203 27.7359 28.8549C30.0907 28.2785 32.0322 28.6672 33.6715 30.043C33.7648 30.1212 33.8784 30.1595 33.9914 30.1595C34.1334 30.1595 34.2746 30.099 34.3731 29.9816C34.5498 29.771 34.5224 29.4569 34.3117 29.2801Z" fill="#616161"/>
</g>
<defs>
<clipPath id="clip0_23_3372">
<rect width="34" height="34" fill="white" transform="translate(0.5 0.5)"/>
</clipPath>
</defs>
</svg>
