<svg width="35" height="35" viewBox="0 0 35 35" fill="none" xmlns="http://www.w3.org/2000/svg">
<path d="M32.7734 26.1063C32.5344 26.0531 32.2687 26.2125 32.2156 26.4781L32.1094 27.0625C30.5687 25.3891 26.1594 20.3156 23.7156 14.3922C23.6359 14.2328 23.5031 14.1266 23.2906 14.1H14.5781C14.4984 13.9938 14.4187 13.8875 14.339 13.7812V12.5063C14.764 12.9313 15.2687 13.3031 15.8 13.5688C16.039 13.675 16.3047 13.5953 16.4375 13.3563C16.5437 13.1172 16.464 12.825 16.225 12.7188C15.4547 12.3203 14.8172 11.7359 14.339 11.0453V9.98281C14.6578 10.275 15.0031 10.5141 15.375 10.7C15.614 10.8063 15.8797 10.7 15.9859 10.4875C16.0922 10.2484 16.0125 9.98281 15.7734 9.87656C15.189 9.58437 14.6844 9.13281 14.339 8.575V7.43281C14.525 7.59219 14.7375 7.69844 14.95 7.80469C15.189 7.91094 15.4547 7.83125 15.5875 7.59219C15.6937 7.35313 15.614 7.0875 15.375 6.95469C14.6844 6.58281 14.4187 6.10469 14.2859 5.94531C14.1 5.67969 13.7015 5.67969 13.5156 5.94531C13.4359 6.025 13.1437 6.58281 12.4265 6.95469C12.1875 7.06094 12.1078 7.35313 12.214 7.59219C12.3203 7.80469 12.5859 7.91094 12.825 7.80469C13.0375 7.69844 13.25 7.56563 13.4359 7.43281V8.575C13.064 9.13281 12.5859 9.55781 12.0015 9.87656C11.7625 9.98281 11.6562 10.275 11.789 10.4875C11.9219 10.7 12.1875 10.8328 12.4 10.7C12.7719 10.5141 13.1172 10.275 13.4359 9.98281V11.0453C12.9578 11.7625 12.3203 12.3469 11.55 12.7188C11.3109 12.825 11.2312 13.1172 11.3375 13.3297C11.4437 13.5422 11.7359 13.6484 11.9484 13.5422C12.4797 13.2766 12.9844 12.9047 13.4094 12.4797V13.7547C13.3297 13.8609 13.25 13.9672 13.1703 14.0734H11.7094C11.4969 14.0734 11.3375 14.2063 11.2844 14.3656C10.8062 15.4812 10.3015 16.5703 9.71717 17.6328C9.18592 17.2078 8.73436 16.7031 8.36249 16.1453V14.8703C8.78749 15.2953 9.29217 15.6672 9.82342 15.9328C10.0625 16.0391 10.3281 15.9594 10.4609 15.7203C10.5672 15.4812 10.4875 15.1891 10.2484 15.0828C9.47811 14.6844 8.84061 14.1 8.36249 13.4094V12.3469C8.68124 12.6391 9.02655 12.8781 9.39842 13.0641C9.63749 13.1703 9.90311 13.0906 10.0359 12.8516C10.1422 12.6125 10.0625 12.3203 9.82342 12.2141C9.23905 11.9219 8.73436 11.4703 8.38905 10.9391V9.79688C8.57499 9.95625 8.78749 10.0625 8.99999 10.1688C9.23905 10.275 9.50467 10.1687 9.61092 9.95625C9.71717 9.71719 9.63749 9.45156 9.39842 9.34531C8.7078 8.97344 8.44217 8.49531 8.30936 8.33594C8.12342 8.07031 7.72499 8.07031 7.53905 8.33594C7.45936 8.41563 7.16717 8.97344 6.44999 9.34531C6.21092 9.47812 6.13124 9.74375 6.26405 9.98281C6.3703 10.1953 6.63592 10.275 6.87499 10.1953C7.08749 10.0891 7.29999 9.95625 7.48592 9.82344V10.9656C7.11405 11.5234 6.63592 11.9484 6.05155 12.2406C5.81249 12.3469 5.7328 12.6391 5.83905 12.8516C5.9453 13.0641 6.23749 13.1703 6.44999 13.0641C6.82186 12.8781 7.16717 12.6391 7.48592 12.3469V13.4094C7.0078 14.1266 6.3703 14.7109 5.59999 15.0828C5.36092 15.1891 5.28124 15.4812 5.38749 15.6938C5.49374 15.9062 5.78592 16.0125 5.99842 15.9062C6.52967 15.6406 7.03436 15.2688 7.45936 14.8438V16.1719C6.87499 17.0484 6.07811 17.7656 5.14842 18.2438C4.90936 18.35 4.80311 18.6156 4.93592 18.8547C5.04217 19.0938 5.3078 19.2 5.54686 19.0672H5.57342C6.29061 18.7219 6.92811 18.2172 7.48592 17.6328V21.325C6.05155 23.3703 4.53749 25.2828 2.89061 27.0625L2.7578 26.4516C2.70467 26.2125 2.46561 26.0266 2.19999 26.0797C1.93436 26.1328 1.77499 26.3719 1.82811 26.6375L2.41249 29.4266C2.46561 29.6656 2.70467 29.8516 2.9703 29.7984C3.20936 29.7453 3.3953 29.5062 3.34217 29.2406L3.12967 28.1781C4.6703 26.5312 6.10467 24.8047 7.40624 22.9984V23.7687L5.17499 29.1609C5.04217 29.4797 5.28124 29.7984 5.59999 29.7984H29.3734C29.6922 29.7984 29.9312 29.4531 29.7984 29.1609L26.7969 21.8828C28.3109 24.1141 30.0109 26.2125 31.8437 28.1516L31.6312 29.2141C31.5781 29.4531 31.7375 29.7188 32.0031 29.7719C32.2422 29.825 32.5078 29.6656 32.5609 29.4L33.1453 26.6109C33.1984 26.3984 33.039 26.1594 32.7734 26.1063ZM14.8437 28.8688L14.6844 28.1516C16.5172 26.1859 18.2172 24.0875 19.7312 21.8828L16.8359 28.8688H14.8437ZM23.7422 23.875L25.5484 28.8953H23.7422V23.875ZM24.4859 23.2109L27.6203 26.5578L26.3453 28.3375L24.4859 23.2109ZM23.7422 21.0328V16.9156L26.7969 24.3266L23.7422 21.0328ZM8.36249 17.6859C8.62811 17.9781 8.94686 18.2437 9.26561 18.4828C8.97342 18.9875 8.68124 19.4922 8.36249 19.9703V17.6859ZM12.0281 15.0562H22.5734C20.1031 20.6609 15.9594 25.4422 14.4719 27.0625L14.339 26.4516C14.2859 26.2125 14.0469 26.0266 13.7812 26.0797C13.5422 26.1328 13.3562 26.3719 13.4094 26.6375L13.8875 28.8688H6.31717L12.0281 15.0562ZM22.8125 16.9156V21.2188V28.8688H17.8719L22.8125 16.9156ZM27.1156 28.8688L28.0984 27.4875L28.6828 28.8688H27.1156Z" fill="#616161"/>
<path d="M24.3 6.05155C24.5125 5.89217 24.539 5.59999 24.4062 5.41405C24.3265 5.3078 24.1937 5.22811 24.0609 5.22811C22.1484 5.0953 20.5015 6.55624 20.3687 8.46874C20.2359 10.3812 21.6969 12.0281 23.6094 12.1609C24.8578 12.2406 26.0797 11.6297 26.7437 10.5672C26.8765 10.3547 26.8234 10.0625 26.6109 9.92967C26.5047 9.84999 26.3453 9.84999 26.239 9.87655C25.0969 10.2219 23.875 9.61092 23.5297 8.46874C23.2375 7.53905 23.5562 6.5828 24.3 6.05155ZM25.15 10.8594C23.9547 11.5765 22.3875 11.2047 21.6703 10.0094C20.8734 8.68124 21.4312 6.92811 22.8656 6.34374C22.0687 7.8578 22.6265 9.71717 24.1406 10.5406C24.4328 10.6734 24.7781 10.8062 25.15 10.8594Z" fill="#616161"/>
</svg>
