<svg width="25" height="25" viewBox="0 0 25 25" fill="none" xmlns="http://www.w3.org/2000/svg">
<path d="M19.5 3.5H5.5C4.08579 3.5 3.37868 3.5 2.93934 3.9122C2.5 4.3244 2.5 4.98782 2.5 6.31466V7.00448C2.5 8.04232 2.5 8.56124 2.7596 8.99142C3.0192 9.4216 3.49347 9.68858 4.44202 10.2225L7.35504 11.8624C7.99146 12.2206 8.30967 12.3998 8.53751 12.5976C9.01199 13.0095 9.30408 13.4935 9.43644 14.0872C9.5 14.3722 9.5 14.7058 9.5 15.3729L9.5 18.0424C9.5 18.952 9.5 19.4067 9.75192 19.7613C10.0038 20.1158 10.4513 20.2907 11.3462 20.6406C13.2248 21.375 14.1641 21.7422 14.8321 21.3244C15.5 20.9066 15.5 19.9519 15.5 18.0424V15.3729C15.5 14.7058 15.5 14.3722 15.5636 14.0872C15.6959 13.4935 15.988 13.0095 16.4625 12.5976C16.6903 12.3998 17.0085 12.2206 17.645 11.8624L20.558 10.2225C21.5065 9.68858 21.9808 9.4216 22.2404 8.99142C22.5 8.56124 22.5 8.04232 22.5 7.00448V6.31466C22.5 4.98782 22.5 4.3244 22.0607 3.9122C21.6213 3.5 20.9142 3.5 19.5 3.5Z" stroke="#5F5F5F" stroke-width="1.5"/>
<line x1="5.0699" y1="10.3856" x2="15.0699" y2="3.38558" stroke="#5F5F5F" stroke-width="1.5"/>
</svg>
