<svg width="34" height="35" viewBox="0 0 34 35" fill="none" xmlns="http://www.w3.org/2000/svg">
<g clip-path="url(#clip0_23_3355)">
<path fill-rule="evenodd" clip-rule="evenodd" d="M19.0226 21.3487L11.731 31.1267C11.5432 31.3771 11.5939 31.7322 11.8443 31.92C12.0947 32.1078 12.4499 32.0571 12.6377 31.8067L19.931 22.0258C20.0525 21.8638 20.0783 21.6494 19.9988 21.4632C19.9193 21.277 19.7465 21.1475 19.5455 21.1232C19.3445 21.099 19.1458 21.1839 19.0244 21.3458L19.0226 21.3487Z" fill="#616161"/>
<path d="M1.2368 24.038L4.26156 25.0483C4.3631 25.0853 4.47027 25.1045 4.57831 25.105C4.75388 25.1043 4.92607 25.0565 5.07694 24.9667L15.4239 18.7677C15.555 19.1404 15.7135 19.503 15.8982 19.8522L14.085 22.2831C13.9332 22.4889 13.8684 22.7461 13.9042 22.9993L14.0538 24.0488L12.929 24.382C12.5106 24.5035 12.2248 24.8892 12.2303 25.3249C12.2413 25.5619 12.2706 25.7978 12.3182 26.0303L12.3624 26.3137L11.2291 26.6485C10.7691 26.7883 10.48 27.2425 10.548 27.7184L10.6709 28.5859L9.58185 28.9101C8.69569 29.1695 8.16399 30.0732 8.36752 30.9738L8.99085 33.7368C9.08461 34.1787 9.47294 34.4961 9.92469 34.5C9.95019 34.5 9.97628 34.5 10.0023 34.4966L13.1812 34.279C13.4702 34.2666 13.7379 34.1238 13.9093 33.8909L21.3517 23.9122C24.1645 24.48 27.0645 23.4818 28.932 21.3031C30.7996 19.1243 31.3424 16.1058 30.3511 13.4128C32.7522 11.7703 33.9029 8.82527 33.2514 5.99002C32.5999 3.15477 30.279 1.00747 27.4018 0.577836C24.5246 0.148202 21.6777 1.52383 20.2263 4.04505C17.976 4.01749 15.8207 4.95007 14.3002 6.6091C12.7798 8.26814 12.0383 10.4965 12.2614 12.7357L9.64805 14.2985C9.43469 14.4326 9.28144 14.644 9.22021 14.8884L8.96123 15.914L7.79505 15.7939C7.36057 15.7452 6.9472 15.993 6.78531 16.3991C6.70503 16.6268 6.64248 16.8604 6.59832 17.0978L6.53371 17.3692L5.36812 17.2513C4.8849 17.1944 4.43421 17.5044 4.31475 17.9761L4.10113 18.826L2.9724 18.7127C2.59735 18.6706 2.21891 18.7535 1.89579 18.9484C1.45035 19.2087 1.14377 19.6538 1.05944 20.1627L0.586307 22.95C0.493674 23.4256 0.774097 23.8945 1.2368 24.038ZM28.7622 19.6C27.2386 22.2001 24.1769 23.4765 21.2576 22.7285C21.0353 22.6719 20.8009 22.755 20.6637 22.9388L13.0475 33.1531L10.0675 33.3571L9.47135 30.7289C9.43177 30.5514 9.47082 30.3655 9.57846 30.219C9.65921 30.1125 9.77203 30.0348 9.90032 29.9974L11.1254 29.633C11.5892 29.4984 11.8816 29.0412 11.8094 28.5638L11.6864 27.6962L12.8197 27.3613C13.2842 27.2264 13.5766 26.7679 13.5031 26.2898L13.4357 25.8523C13.4096 25.6868 13.3847 25.5344 13.3711 25.4318L14.5145 25.0936C14.9764 24.9574 15.2668 24.501 15.1945 24.0249L15.0347 22.9029L17.0254 20.2334C17.1623 20.0501 17.1755 19.8024 17.0588 19.6055C15.3274 16.6924 16.0053 12.9492 18.6483 10.8282C21.2913 8.70727 25.0925 8.85615 27.5616 11.1772C28.1071 11.6869 28.5635 12.2842 28.9119 12.9446C28.2597 13.2567 27.5554 13.4457 26.8346 13.5022C26.6583 12.443 25.761 11.6541 24.6879 11.6152C23.6148 11.5763 22.6626 12.298 22.4101 13.3417C22.1576 14.3853 22.6746 15.4625 23.6468 15.9184C24.619 16.3743 25.7778 16.0829 26.4186 15.2214C26.547 15.0445 26.6484 14.8495 26.7195 14.6428C27.6328 14.598 28.5287 14.3752 29.3567 13.9872C29.9826 15.8559 29.7656 17.9041 28.7622 19.6ZM23.8891 12.989C24.0463 12.8595 24.2357 12.775 24.4371 12.7448C24.492 12.7369 24.5476 12.7329 24.6031 12.7329C25.0816 12.7343 25.5078 13.0361 25.6678 13.4871C25.0524 13.4164 24.4522 13.2482 23.8896 12.989H23.8891ZM25.4536 14.6051C25.1684 14.9384 24.7158 15.0759 24.2934 14.9574C23.871 14.8389 23.5558 14.4861 23.4856 14.0531C24.1112 14.3326 24.7744 14.5185 25.4541 14.605L25.4536 14.6051ZM26.3574 1.63452C28.927 1.6308 31.2078 3.27961 32.0099 5.72089C32.812 8.16216 31.9536 10.8424 29.8825 12.3634C29.48 11.6116 28.9568 10.9309 28.3338 10.3484C28.1639 10.1914 27.9893 10.0492 27.8114 9.90865C27.7012 9.48652 27.5557 9.07442 27.3762 8.67679C26.446 6.61568 24.6733 5.05499 22.511 4.39354C22.1765 4.29294 21.8358 4.21438 21.491 4.1584C22.6025 2.57141 24.42 1.62874 26.3574 1.63452ZM2.18199 20.3514C2.21134 20.1706 2.32031 20.0125 2.47889 19.9208C2.5919 19.8518 2.72471 19.8225 2.85626 19.8375L4.13062 19.9678C4.60979 20.0226 5.05409 19.7103 5.16472 19.2409L5.37894 18.3909L6.55701 18.5121C7.03818 18.5574 7.48023 18.2443 7.59736 17.7755L7.6971 17.3568C7.73675 17.1908 7.77187 17.036 7.7985 16.9335L8.98507 17.0554C9.46371 17.1076 9.90696 16.7971 10.0214 16.3295L10.3013 15.2245L13.1566 13.5178C13.3527 13.4007 13.4592 13.1772 13.4269 12.9512C12.9419 9.64894 14.9276 6.48347 18.1117 5.48263C21.2958 4.48179 24.7354 5.94208 26.2269 8.928C24.9686 8.3449 23.5781 8.10658 22.1974 8.23726C19.9648 8.4374 17.921 9.57271 16.5715 11.3626C15.2219 13.1523 14.6926 15.4296 15.1143 17.6312L4.56131 23.9536L1.73091 23.0084L2.18199 20.3514Z" fill="#616161"/>
<path fill-rule="evenodd" clip-rule="evenodd" d="M13.7615 17.1203C14.0257 16.9577 14.1101 16.6129 13.9508 16.3468C13.7915 16.0806 13.4477 15.992 13.1796 16.148L4.11713 21.5804C3.9407 21.6831 3.83312 21.8727 3.83545 22.0768C3.83777 22.2809 3.9498 22.468 4.12855 22.5665C4.30731 22.6651 4.52525 22.6598 4.6991 22.5528L13.7615 17.1203Z" fill="#616161"/>
</g>
<defs>
<clipPath id="clip0_23_3355">
<rect width="34" height="34" fill="white" transform="translate(0 0.5)"/>
</clipPath>
</defs>
</svg>
